<svg width="239" height="59" viewBox="0 0 239 59" fill="none" xmlns="http://www.w3.org/2000/svg">
<path d="M65.3672 30.6758C66.8711 30.6758 68.2871 30.8076 69.6152 31.0713C70.9434 31.335 72.1055 31.7012 73.1016 32.1699C74.0977 32.6387 74.8838 33.2051 75.46 33.8691C76.0361 34.5234 76.3242 35.2461 76.3242 36.0371V47.6973C76.3242 48.4883 76.0361 49.2158 75.46 49.8799C74.8838 50.5342 74.0977 51.0957 73.1016 51.5645C72.1055 52.0332 70.9434 52.3994 69.6152 52.6631C68.2871 52.9268 66.8711 53.0586 65.3672 53.0586C64.5273 53.0586 63.668 53.0293 62.7891 52.9707C61.9102 52.9023 61.0557 52.8193 60.2256 52.7217C59.4053 52.6143 58.6338 52.4922 57.9111 52.3555C57.1885 52.2188 56.5684 52.0723 56.0508 51.916V31.8184C56.5684 31.6621 57.1885 31.5156 57.9111 31.3789C58.6338 31.2422 59.4053 31.125 60.2256 31.0273C61.0557 30.9199 61.9102 30.8369 62.7891 30.7783C63.668 30.71 64.5273 30.6758 65.3672 30.6758ZM65.4258 33.9863C64.5371 33.9863 63.7656 34.0156 63.1113 34.0742C62.457 34.123 61.8955 34.1914 61.4268 34.2793C60.958 34.3574 60.5674 34.4453 60.2549 34.543C59.9521 34.6309 59.7031 34.709 59.5078 34.7773V48.957C59.7031 49.0352 59.9521 49.1182 60.2549 49.2061C60.5674 49.2939 60.958 49.3818 61.4268 49.4697C61.8955 49.5479 62.457 49.6162 63.1113 49.6748C63.7656 49.7236 64.5371 49.748 65.4258 49.748C66.5195 49.748 67.501 49.6602 68.3701 49.4844C69.249 49.3086 69.9863 49.0742 70.582 48.7812C71.1875 48.4883 71.6514 48.1514 71.9736 47.7705C72.2959 47.3799 72.457 46.9746 72.457 46.5547V37.1797C72.457 36.7598 72.2959 36.3594 71.9736 35.9785C71.6514 35.5879 71.1875 35.2461 70.582 34.9531C69.9863 34.6602 69.249 34.4258 68.3701 34.25C67.501 34.0742 66.5195 33.9863 65.4258 33.9863ZM90.416 36.3008C90.9141 36.3008 91.5146 36.3252 92.2178 36.374C92.9209 36.4229 93.6484 36.5107 94.4004 36.6377C95.1621 36.7549 95.9141 36.9258 96.6562 37.1504C97.3984 37.3652 98.0625 37.6436 98.6484 37.9854C99.2441 38.3271 99.7227 38.7422 100.084 39.2305C100.455 39.709 100.641 40.2754 100.641 40.9297V45.8809H83.8535V49.6309C85.0352 49.7969 86.1729 49.9141 87.2666 49.9824C88.3604 50.041 89.4102 50.0703 90.416 50.0703C91.9492 50.0703 93.3359 50.0117 94.5762 49.8945C95.8262 49.7773 96.9053 49.6455 97.8135 49.499C98.8584 49.333 99.8008 49.1426 100.641 48.9277V52.1797C98.7852 52.4727 96.9932 52.6826 95.2646 52.8096C93.5459 52.9365 91.9297 53 90.416 53C88.8926 53 87.5107 52.9609 86.2705 52.8828C85.0303 52.7949 83.9658 52.6973 83.0771 52.5898C82.042 52.4727 81.1094 52.3359 80.2793 52.1797V40.9297C80.2793 40.2754 80.4404 39.709 80.7627 39.2305C81.085 38.7422 81.5146 38.3271 82.0518 37.9854C82.5889 37.6436 83.2041 37.3652 83.8975 37.1504C84.6006 36.9258 85.3281 36.7549 86.0801 36.6377C86.832 36.5107 87.5791 36.4229 88.3213 36.374C89.0732 36.3252 89.7715 36.3008 90.416 36.3008ZM83.8535 43.5371H97.0078V41.8379C97.0078 41.4375 96.9102 41.0957 96.7148 40.8125C96.5195 40.5195 96.2559 40.2754 95.9238 40.0801C95.6016 39.8848 95.2207 39.7285 94.7812 39.6113C94.3516 39.4844 93.9023 39.3916 93.4336 39.333C92.9648 39.2646 92.4912 39.2207 92.0127 39.2012C91.5439 39.1816 91.0996 39.1719 90.6797 39.1719C90.2402 39.1719 89.7666 39.1816 89.2588 39.2012C88.7607 39.2207 88.2578 39.2646 87.75 39.333C87.2422 39.4014 86.7539 39.499 86.2852 39.626C85.8164 39.7432 85.4014 39.9043 85.04 40.1094C84.6787 40.3047 84.3906 40.5488 84.1758 40.8418C83.9609 41.125 83.8535 41.4668 83.8535 41.8672V43.5371ZM114.41 36.3008C115.572 36.3008 116.705 36.374 117.809 36.5205C118.912 36.6572 119.903 36.8965 120.782 37.2383C121.661 37.5703 122.384 38.0244 122.95 38.6006C123.517 39.1768 123.854 39.8945 123.961 40.7539L120.562 41.6914C120.562 41.1836 120.387 40.7637 120.035 40.4316C119.693 40.0898 119.234 39.8262 118.658 39.6406C118.092 39.4453 117.438 39.3086 116.695 39.2305C115.953 39.1523 115.191 39.1133 114.41 39.1133C113.658 39.1133 112.911 39.1523 112.169 39.2305C111.437 39.2988 110.777 39.4307 110.191 39.626C109.615 39.8115 109.146 40.0703 108.785 40.4023C108.434 40.7344 108.258 41.1641 108.258 41.6914V43.4785H123.961V48.5469C123.961 49.123 123.834 49.6357 123.58 50.085C123.326 50.5244 122.975 50.9102 122.525 51.2422C122.076 51.5645 121.544 51.8428 120.929 52.0771C120.323 52.3018 119.664 52.4824 118.951 52.6191C118.248 52.7559 117.506 52.8535 116.725 52.9121C115.953 52.9707 115.182 53 114.41 53C113.229 53 112.086 52.9316 110.982 52.7949C109.879 52.6484 108.888 52.4092 108.009 52.0771C107.13 51.7354 106.407 51.2812 105.841 50.7148C105.284 50.1387 104.957 49.416 104.859 48.5469L108.258 47.6094C108.258 48.1465 108.434 48.5811 108.785 48.9131C109.146 49.2451 109.615 49.5039 110.191 49.6895C110.777 49.875 111.437 50.002 112.169 50.0703C112.911 50.1289 113.658 50.1582 114.41 50.1582C115.191 50.1582 115.953 50.124 116.695 50.0557C117.438 49.9775 118.092 49.8457 118.658 49.6602C119.234 49.4648 119.693 49.2061 120.035 48.8838C120.387 48.5518 120.562 48.127 120.562 47.6094V45.8223H104.859V40.7539C104.859 40.1777 104.986 39.6699 105.24 39.2305C105.494 38.7812 105.841 38.3955 106.28 38.0732C106.729 37.7412 107.257 37.4629 107.862 37.2383C108.468 37.0039 109.122 36.8184 109.825 36.6816C110.538 36.5449 111.28 36.4473 112.052 36.3887C112.833 36.3301 113.619 36.3008 114.41 36.3008ZM132.369 53H128.648V36.3008H132.369V53ZM130.523 30.5C131.246 30.5 131.817 30.6221 132.237 30.8662C132.657 31.1006 132.867 31.4766 132.867 31.9941V32.7266C132.867 33.1953 132.657 33.5322 132.237 33.7373C131.817 33.9424 131.246 34.0449 130.523 34.0449C129.83 34.0449 129.269 33.9424 128.839 33.7373C128.419 33.5322 128.209 33.1953 128.209 32.7266V31.9941C128.209 31.4766 128.419 31.1006 128.839 30.8662C129.269 30.6221 129.83 30.5 130.523 30.5ZM147.076 36.3008C147.906 36.3008 148.751 36.335 149.61 36.4033C150.47 36.4619 151.295 36.5449 152.086 36.6523C152.887 36.75 153.634 36.8672 154.327 37.0039C155.03 37.1406 155.641 37.2871 156.158 37.4434H156.393V53.7324C156.393 54.4258 156.246 55.0703 155.953 55.666C155.66 56.2617 155.235 56.7744 154.679 57.2041C154.122 57.6436 153.438 57.9854 152.628 58.2295C151.817 58.4736 150.895 58.5957 149.859 58.5957V56.0469C150.25 56.0469 150.611 56.0078 150.943 55.9297C151.275 55.8516 151.563 55.7295 151.808 55.5635C152.062 55.4072 152.257 55.207 152.394 54.9629C152.54 54.7285 152.613 54.4551 152.613 54.1426V51.8867C151.725 52.2285 150.802 52.502 149.845 52.707C148.897 52.9023 147.975 53 147.076 53C145.572 53 144.229 52.8975 143.048 52.6924C141.866 52.4775 140.865 52.1504 140.045 51.7109C139.225 51.2715 138.6 50.7148 138.17 50.041C137.74 49.3672 137.525 48.5664 137.525 47.6387V41.6621C137.525 40.7344 137.74 39.9336 138.17 39.2598C138.6 38.5859 139.225 38.0293 140.045 37.5898C140.865 37.1504 141.866 36.8281 143.048 36.623C144.229 36.4082 145.572 36.3008 147.076 36.3008ZM148.131 50.0703C148.668 50.0703 149.161 50.0361 149.61 49.9678C150.06 49.8896 150.465 49.792 150.826 49.6748C151.197 49.5576 151.529 49.4355 151.822 49.3086C152.125 49.1719 152.389 49.0449 152.613 48.9277V39.8164C152.35 39.7188 152.042 39.6211 151.69 39.5234C151.349 39.4258 150.978 39.3428 150.577 39.2744C150.187 39.1963 149.781 39.1377 149.361 39.0986C148.941 39.0498 148.531 39.0254 148.131 39.0254C147.223 39.0254 146.358 39.0498 145.538 39.0986C144.718 39.1475 144 39.2793 143.385 39.4941C142.77 39.709 142.276 40.041 141.905 40.4902C141.544 40.9297 141.363 41.5449 141.363 42.3359V46.6426C141.363 47.1602 141.446 47.6045 141.612 47.9756C141.778 48.3467 142.008 48.6592 142.301 48.9131C142.604 49.167 142.965 49.3721 143.385 49.5283C143.805 49.6748 144.264 49.792 144.762 49.8799C145.26 49.958 145.792 50.0117 146.358 50.041C146.935 50.0605 147.525 50.0703 148.131 50.0703ZM161.402 40.9004C161.363 40.5879 161.271 40.3242 161.124 40.1094C160.987 39.8945 160.836 39.7188 160.67 39.582C160.484 39.416 160.279 39.2793 160.055 39.1719L161.695 36.3008C162.057 36.4277 162.418 36.5986 162.779 36.8135C163.082 36.999 163.399 37.2383 163.731 37.5312C164.073 37.8145 164.371 38.166 164.625 38.5859C165.113 38.2734 165.611 37.9805 166.119 37.707C166.637 37.4238 167.174 37.1797 167.73 36.9746C168.297 36.7695 168.888 36.6084 169.503 36.4912C170.128 36.3643 170.797 36.3008 171.51 36.3008C173.014 36.3008 174.303 36.4277 175.377 36.6816C176.461 36.9258 177.345 37.2969 178.028 37.7949C178.722 38.2832 179.229 38.8936 179.552 39.626C179.874 40.3584 180.035 41.2129 180.035 42.1895V53H176.197V43.0977C176.197 42.5508 176.124 42.082 175.978 41.6914C175.831 41.291 175.631 40.9541 175.377 40.6807C175.133 40.3975 174.845 40.168 174.513 39.9922C174.181 39.8164 173.834 39.6846 173.473 39.5967C173.121 39.499 172.76 39.4355 172.389 39.4062C172.018 39.3672 171.666 39.3477 171.334 39.3477C170.709 39.3477 170.113 39.3916 169.547 39.4795C168.98 39.5674 168.443 39.6895 167.936 39.8457C167.428 39.9922 166.949 40.168 166.5 40.373C166.051 40.5781 165.631 40.793 165.24 41.0176V53H161.402V40.9004ZM194.713 36.3008C195.211 36.3008 195.812 36.3252 196.515 36.374C197.218 36.4229 197.945 36.5107 198.697 36.6377C199.459 36.7549 200.211 36.9258 200.953 37.1504C201.695 37.3652 202.359 37.6436 202.945 37.9854C203.541 38.3271 204.02 38.7422 204.381 39.2305C204.752 39.709 204.938 40.2754 204.938 40.9297V45.8809H188.15V49.6309C189.332 49.7969 190.47 49.9141 191.563 49.9824C192.657 50.041 193.707 50.0703 194.713 50.0703C196.246 50.0703 197.633 50.0117 198.873 49.8945C200.123 49.7773 201.202 49.6455 202.11 49.499C203.155 49.333 204.098 49.1426 204.938 48.9277V52.1797C203.082 52.4727 201.29 52.6826 199.562 52.8096C197.843 52.9365 196.227 53 194.713 53C193.189 53 191.808 52.9609 190.567 52.8828C189.327 52.7949 188.263 52.6973 187.374 52.5898C186.339 52.4727 185.406 52.3359 184.576 52.1797V40.9297C184.576 40.2754 184.737 39.709 185.06 39.2305C185.382 38.7422 185.812 38.3271 186.349 37.9854C186.886 37.6436 187.501 37.3652 188.194 37.1504C188.897 36.9258 189.625 36.7549 190.377 36.6377C191.129 36.5107 191.876 36.4229 192.618 36.374C193.37 36.3252 194.068 36.3008 194.713 36.3008ZM188.15 43.5371H201.305V41.8379C201.305 41.4375 201.207 41.0957 201.012 40.8125C200.816 40.5195 200.553 40.2754 200.221 40.0801C199.898 39.8848 199.518 39.7285 199.078 39.6113C198.648 39.4844 198.199 39.3916 197.73 39.333C197.262 39.2646 196.788 39.2207 196.31 39.2012C195.841 39.1816 195.396 39.1719 194.977 39.1719C194.537 39.1719 194.063 39.1816 193.556 39.2012C193.058 39.2207 192.555 39.2646 192.047 39.333C191.539 39.4014 191.051 39.499 190.582 39.626C190.113 39.7432 189.698 39.9043 189.337 40.1094C188.976 40.3047 188.688 40.5488 188.473 40.8418C188.258 41.125 188.15 41.4668 188.15 41.8672V43.5371ZM222.428 36.3008C222.428 37.3164 222.394 38.376 222.325 39.4795C222.257 40.5732 222.125 41.7012 221.93 42.8633H218.385C218.473 42.5312 218.556 42.1699 218.634 41.7793C218.692 41.4473 218.746 41.0615 218.795 40.6221C218.854 40.1729 218.883 39.6992 218.883 39.2012C218.023 39.2207 217.311 39.3037 216.744 39.4502C216.188 39.5869 215.724 39.7529 215.353 39.9482C214.981 40.1338 214.679 40.3242 214.444 40.5195C214.21 40.7148 214 40.8711 213.814 40.9883V53H210.064V40.9004C210.025 40.5879 209.933 40.3242 209.786 40.1094C209.649 39.8945 209.503 39.7188 209.347 39.582C209.171 39.416 208.971 39.2793 208.746 39.1719L210.299 36.3008C210.66 36.4277 211.017 36.5986 211.368 36.8135C211.671 36.999 211.988 37.2383 212.32 37.5312C212.662 37.8145 212.965 38.166 213.229 38.5859C213.727 38.2441 214.186 37.9561 214.605 37.7217C215.025 37.4775 215.431 37.2725 215.821 37.1064C216.222 36.9404 216.632 36.8135 217.052 36.7256C217.481 36.6279 217.95 36.5498 218.458 36.4912C218.976 36.4326 219.552 36.3936 220.187 36.374C220.831 36.3447 221.578 36.3203 222.428 36.3008Z" fill="white"/>
<path d="M61.9219 7.09375C62.7031 7.09375 63.5 7.13281 64.3125 7.21094C65.1328 7.28125 65.9297 7.41016 66.7031 7.59766C67.4766 7.77734 68.2031 8.03125 68.8828 8.35938C69.5625 8.67969 70.1562 9.08984 70.6641 9.58984C71.1797 10.082 71.5859 10.6758 71.8828 11.3711C72.1797 12.0586 72.3281 12.8672 72.3281 13.7969C72.3281 14.7422 72.1992 15.5742 71.9414 16.293C71.6914 17.0117 71.3359 17.6367 70.875 18.168C70.4219 18.6992 69.8789 19.1445 69.2461 19.5039C68.6211 19.8555 67.9336 20.1406 67.1836 20.3594C66.4336 20.5703 65.6367 20.7227 64.793 20.8164C63.9492 20.9023 63.0859 20.9453 62.2031 20.9453C61.6484 20.9453 61.0977 20.9297 60.5508 20.8984C60.0039 20.8672 59.4531 20.8281 58.8984 20.7812V24.9766H55.9922V7.77344C56.1641 7.71875 56.4375 7.65234 56.8125 7.57422C57.1953 7.49609 57.6445 7.42188 58.1602 7.35156C58.6836 7.28125 59.2656 7.22266 59.9062 7.17578C60.5469 7.12109 61.2188 7.09375 61.9219 7.09375ZM62.7656 9.67188C62.25 9.67188 61.7578 9.69531 61.2891 9.74219C60.8203 9.78125 60.4102 9.82812 60.0586 9.88281C59.6367 9.94531 59.25 10.0156 58.8984 10.0938V18.1094C59.1484 18.1641 59.4258 18.2109 59.7305 18.25C59.9883 18.2891 60.2891 18.3242 60.6328 18.3555C60.9766 18.3789 61.3438 18.3906 61.7344 18.3906C62.2422 18.3906 62.7773 18.3789 63.3398 18.3555C63.9102 18.3242 64.4727 18.2578 65.0273 18.1562C65.5898 18.0547 66.1211 17.9062 66.6211 17.7109C67.1289 17.5078 67.5742 17.2422 67.957 16.9141C68.3477 16.5781 68.6562 16.1641 68.8828 15.6719C69.1172 15.1797 69.2344 14.5859 69.2344 13.8906C69.2344 13.3125 69.1406 12.8047 68.9531 12.3672C68.7656 11.9297 68.5117 11.5547 68.1914 11.2422C67.8711 10.9297 67.4961 10.6719 67.0664 10.4688C66.6445 10.2656 66.1914 10.1055 65.707 9.98828C65.2305 9.87109 64.7383 9.78906 64.2305 9.74219C63.7305 9.69531 63.2422 9.67188 62.7656 9.67188ZM77.4141 25H74.7422V7.39844H77.4141V25ZM94.9219 20.2188C94.7266 20.0469 94.4844 19.8789 94.1953 19.7148C93.9062 19.5508 93.5508 19.4062 93.1289 19.2812C92.707 19.1484 92.2031 19.043 91.6172 18.9648C91.0391 18.8789 90.3594 18.8359 89.5781 18.8359C88.8828 18.8359 88.2227 18.8516 87.5977 18.8828C86.9805 18.9062 86.4375 18.9844 85.9688 19.1172C85.5 19.2422 85.1289 19.4453 84.8555 19.7266C84.582 20.0078 84.4453 20.3984 84.4453 20.8984V22.3984C85.1328 22.5078 85.8906 22.5977 86.7188 22.668C87.5469 22.7383 88.4688 22.7734 89.4844 22.7734C90.2969 22.7734 91.1602 22.7461 92.0742 22.6914C92.9961 22.6289 93.9453 22.5078 94.9219 22.3281V20.2188ZM89.6484 11.6406C90.0391 11.6406 90.5117 11.6602 91.0664 11.6992C91.6211 11.7383 92.1992 11.8086 92.8008 11.9102C93.4023 12.0039 93.9961 12.1367 94.582 12.3086C95.1758 12.4727 95.707 12.6914 96.1758 12.9648C96.6523 13.2305 97.0352 13.5508 97.3242 13.9258C97.6133 14.3008 97.7578 14.7422 97.7578 15.25V24.3203C97.1016 24.4531 96.3594 24.5664 95.5312 24.6602C94.8203 24.7461 93.9727 24.8242 92.9883 24.8945C92.0039 24.9648 90.9062 25 89.6953 25C88.4922 25 87.2109 24.9492 85.8516 24.8477C84.5 24.7461 83.0859 24.5703 81.6094 24.3203V20.1016C81.6094 19.6484 81.7148 19.2539 81.9258 18.918C82.1445 18.5742 82.4414 18.2812 82.8164 18.0391C83.1914 17.7969 83.6328 17.5977 84.1406 17.4414C84.6484 17.2852 85.1953 17.1602 85.7812 17.0664C86.3672 16.9727 86.9766 16.9102 87.6094 16.8789C88.2422 16.8398 88.875 16.8203 89.5078 16.8203C90.4688 16.8203 91.2852 16.8828 91.957 17.0078C92.6367 17.125 93.1992 17.2539 93.6445 17.3945C94.1602 17.5664 94.5859 17.7578 94.9219 17.9688V16.0703C94.9219 15.75 94.8438 15.4766 94.6875 15.25C94.5312 15.0156 94.3203 14.8203 94.0547 14.6641C93.7891 14.5 93.4844 14.3711 93.1406 14.2773C92.7969 14.1758 92.4375 14.0977 92.0625 14.043C91.6875 13.9883 91.3047 13.9531 90.9141 13.9375C90.5312 13.9219 90.1719 13.9141 89.8359 13.9141C89.4844 13.9141 89.1094 13.9258 88.7109 13.9492C88.3125 13.9648 87.9141 14 87.5156 14.0547C87.125 14.1094 86.7461 14.1875 86.3789 14.2891C86.0195 14.3828 85.6992 14.5117 85.418 14.6758C85.1367 14.8398 84.9102 15.0391 84.7383 15.2734C84.5742 15.5 84.4922 15.7734 84.4922 16.0938L81.5859 15.3438C81.5859 14.8203 81.7148 14.3672 81.9727 13.9844C82.2305 13.5938 82.5703 13.2617 82.9922 12.9883C83.4219 12.7148 83.9141 12.4922 84.4688 12.3203C85.0234 12.1406 85.5977 12.0039 86.1914 11.9102C86.793 11.8086 87.3906 11.7383 87.9844 11.6992C88.5781 11.6602 89.1328 11.6406 89.6484 11.6406ZM104.156 19.5625C104.156 20 104.215 20.3789 104.332 20.6992C104.449 21.0117 104.609 21.2812 104.812 21.5078C105.016 21.7266 105.246 21.9062 105.504 22.0469C105.77 22.1875 106.047 22.2969 106.336 22.375C106.625 22.4453 106.918 22.4961 107.215 22.5273C107.512 22.5508 107.797 22.5625 108.07 22.5625C109.062 22.5625 109.965 22.4336 110.777 22.1758C111.59 21.918 112.312 21.6016 112.945 21.2266V11.6406L115.969 11.875V25.5859C115.969 26.1406 115.852 26.6562 115.617 27.1328C115.383 27.6094 115.043 28.0195 114.598 28.3633C114.152 28.7148 113.605 28.9883 112.957 29.1836C112.309 29.3789 111.57 29.4766 110.742 29.4766V27.4375C111.055 27.4375 111.344 27.4062 111.609 27.3438C111.875 27.2812 112.105 27.1836 112.301 27.0508C112.504 26.9258 112.66 26.7656 112.77 26.5703C112.887 26.3828 112.945 26.1641 112.945 25.9141V23.4531C112.578 23.6797 112.203 23.8867 111.82 24.0742C111.445 24.2617 111.051 24.4258 110.637 24.5664C110.223 24.6992 109.789 24.8047 109.336 24.8828C108.883 24.9609 108.406 25 107.906 25C106.695 25 105.66 24.9023 104.801 24.707C103.941 24.5039 103.234 24.207 102.68 23.8164C102.133 23.418 101.73 22.9258 101.473 22.3398C101.215 21.7539 101.086 21.0703 101.086 20.2891V11.875L104.156 11.6406V19.5625ZM122.977 25H120.305V7.39844H122.977V25ZM130.664 25H127.688V11.6406H130.664V25ZM129.188 7C129.766 7 130.223 7.09766 130.559 7.29297C130.895 7.48047 131.062 7.78125 131.062 8.19531V8.78125C131.062 9.15625 130.895 9.42578 130.559 9.58984C130.223 9.75391 129.766 9.83594 129.188 9.83594C128.633 9.83594 128.184 9.75391 127.84 9.58984C127.504 9.42578 127.336 9.15625 127.336 8.78125V8.19531C127.336 7.78125 127.504 7.48047 127.84 7.29297C128.184 7.09766 128.633 7 129.188 7ZM142.57 11.6406C143.5 11.6406 144.406 11.6992 145.289 11.8164C146.172 11.9258 146.965 12.1172 147.668 12.3906C148.371 12.6562 148.949 13.0195 149.402 13.4805C149.855 13.9414 150.125 14.5156 150.211 15.2031L147.492 15.9531C147.492 15.5469 147.352 15.2109 147.07 14.9453C146.797 14.6719 146.43 14.4609 145.969 14.3125C145.516 14.1562 144.992 14.0469 144.398 13.9844C143.805 13.9219 143.195 13.8906 142.57 13.8906C141.969 13.8906 141.371 13.9219 140.777 13.9844C140.191 14.0391 139.664 14.1445 139.195 14.3008C138.734 14.4492 138.359 14.6562 138.07 14.9219C137.789 15.1875 137.648 15.5312 137.648 15.9531V17.3828H150.211V21.4375C150.211 21.8984 150.109 22.3086 149.906 22.668C149.703 23.0195 149.422 23.3281 149.062 23.5938C148.703 23.8516 148.277 24.0742 147.785 24.2617C147.301 24.4414 146.773 24.5859 146.203 24.6953C145.641 24.8047 145.047 24.8828 144.422 24.9297C143.805 24.9766 143.188 25 142.57 25C141.625 25 140.711 24.9453 139.828 24.8359C138.945 24.7188 138.152 24.5273 137.449 24.2617C136.746 23.9883 136.168 23.625 135.715 23.1719C135.27 22.7109 135.008 22.1328 134.93 21.4375L137.648 20.6875C137.648 21.1172 137.789 21.4648 138.07 21.7305C138.359 21.9961 138.734 22.2031 139.195 22.3516C139.664 22.5 140.191 22.6016 140.777 22.6562C141.371 22.7031 141.969 22.7266 142.57 22.7266C143.195 22.7266 143.805 22.6992 144.398 22.6445C144.992 22.582 145.516 22.4766 145.969 22.3281C146.43 22.1719 146.797 21.9648 147.07 21.707C147.352 21.4414 147.492 21.1016 147.492 20.6875V19.2578H134.93V15.2031C134.93 14.7422 135.031 14.3359 135.234 13.9844C135.438 13.625 135.715 13.3164 136.066 13.0586C136.426 12.793 136.848 12.5703 137.332 12.3906C137.816 12.2031 138.34 12.0547 138.902 11.9453C139.473 11.8359 140.066 11.7578 140.684 11.7109C141.309 11.6641 141.938 11.6406 142.57 11.6406ZM157.406 11.4766H160.383V13.4453H157.406V25H154.617V13.4453H152.414V11.4766H154.617V7.39844H157.406V11.4766Z" fill="white"/>
<path d="M27.47 7C14.4822 7 4 17.4822 4 30.47C4 43.4578 14.4822 53.9399 27.47 53.9399C40.4578 53.9399 50.9399 43.4578 50.9399 30.47C50.9399 17.4822 40.4578 7 27.47 7ZM27.47 9.05992C39.3538 9.05992 48.88 18.5861 48.88 30.47C48.88 42.3538 39.3538 51.88 27.47 51.88C15.5861 51.88 6.05992 42.3538 6.05992 30.47C6.05992 18.5861 15.5861 9.05992 27.47 9.05992ZM24.3422 19.25C18.2908 19.25 13.7371 20.298 13.5147 20.3496H13.5127V20.3516C11.8798 20.7329 10.85 22.3909 11.2296 24.0232C11.6093 25.6571 13.267 26.6843 14.8993 26.3103H14.9072L14.9132 26.3083C14.7973 26.3365 14.964 26.2962 15.0865 26.2704C15.209 26.2447 15.3899 26.209 15.6244 26.1648C16.0935 26.0765 16.7744 25.9578 17.6226 25.8401C19.3189 25.6047 21.6822 25.37 24.3422 25.37H24.406C28.8051 25.376 35.1265 26.0511 40.2 29.0296H40.202V29.0316C40.6839 29.3125 41.2212 29.45 41.748 29.45C42.7976 29.45 43.8234 28.9018 44.3896 27.9379C45.2388 26.4917 44.7467 24.6005 43.2999 23.7503C36.9319 20.0117 29.5191 19.2572 24.4139 19.25H24.3422ZM24.3422 21.29H24.4139C29.315 21.2971 36.3967 22.0636 42.2659 25.5094C42.7633 25.8017 42.9217 26.41 42.6305 26.9059C42.4358 27.2374 42.0978 27.41 41.748 27.41C41.5744 27.41 41.4015 27.3673 41.234 27.2705L41.23 27.2685C35.6433 23.9903 29.0041 23.3362 24.408 23.33H24.3422C21.5626 23.33 19.1123 23.5745 17.3437 23.82C16.4593 23.9428 15.744 24.0648 15.2459 24.1587C14.9968 24.2057 14.802 24.2457 14.6662 24.2743C14.5385 24.3011 14.5477 24.2972 14.445 24.3221C13.8782 24.452 13.3463 24.1223 13.2159 23.5611C13.0856 23.001 13.4158 22.4693 13.9749 22.3379C14.1299 22.3018 18.527 21.29 24.3422 21.29ZM24.402 27.412C21.8455 27.4334 19.6384 27.6722 18.027 27.918C16.4156 28.1637 15.5003 28.3859 15.2061 28.4698C13.7462 28.8838 12.881 30.431 13.2955 31.8924C13.7114 33.3552 15.2584 34.2161 16.7181 33.8009L16.7241 33.7989H16.7281C16.7545 33.7927 16.7959 33.783 16.8496 33.771C16.9571 33.747 17.1157 33.7144 17.3198 33.6734C17.728 33.5914 18.3165 33.4806 19.045 33.3706C20.5019 33.1506 22.5153 32.9282 24.7387 32.9084C28.6792 32.8737 33.1491 33.4527 37.5106 36.1696C37.9654 36.4551 38.4786 36.592 38.9768 36.592C39.9007 36.592 40.8093 36.1235 41.3316 35.2871C42.1355 33.9979 41.735 32.2708 40.4451 31.468C34.9527 28.0462 29.0618 27.3733 24.402 27.412ZM24.4199 29.45C28.8687 29.4131 34.3292 30.0604 39.3673 33.1993C39.7196 33.4185 39.8205 33.8543 39.6004 34.2073C39.4577 34.4358 39.2219 34.552 38.9768 34.552C38.8427 34.552 38.7148 34.518 38.5943 34.4424L38.5923 34.4404C33.8073 31.4588 28.8783 30.8317 24.7207 30.8684C22.3725 30.8894 20.2696 31.1236 18.7402 31.3545C17.9755 31.4699 17.3549 31.5853 16.9173 31.6732C16.6985 31.7172 16.5256 31.7535 16.4034 31.7808C16.3423 31.7945 16.2941 31.8061 16.2579 31.8147C16.2218 31.8233 16.2788 31.8047 16.1504 31.8426L16.1603 31.8386C15.7698 31.9497 15.3703 31.7302 15.2579 31.3346C15.1442 30.934 15.3623 30.5452 15.7619 30.4321H15.7639C15.7521 30.4355 16.8015 30.1677 18.3338 29.9341C19.866 29.7004 21.9815 29.4704 24.4199 29.45ZM24.92 34.552C20.4739 34.553 17.1825 35.6336 16.9731 35.7034C15.6482 36.1443 14.92 37.6044 15.3614 38.9288C15.8031 40.2537 17.2632 40.9889 18.5908 40.5385L18.5748 40.5445C18.677 40.5116 18.7375 40.4902 19.047 40.407C19.3564 40.3237 19.8116 40.2122 20.3798 40.1002C21.5161 39.8761 23.1093 39.6524 24.92 39.652C29.3436 39.651 32.365 40.7103 34.7255 42.2836V42.2816C35.1578 42.5704 35.6537 42.712 36.138 42.712C36.9608 42.712 37.7748 42.3055 38.2616 41.5744C39.0354 40.413 38.7153 38.8153 37.5544 38.0403C33.8363 35.5619 29.6529 34.5498 24.92 34.552ZM24.92 36.592C29.3671 36.59 33.0744 37.5056 36.4229 39.7376C36.6659 39.9013 36.7265 40.2014 36.5643 40.4448C36.4615 40.5991 36.3046 40.672 36.138 40.672C36.0388 40.672 35.9471 40.6464 35.8571 40.5863V40.5843C33.1707 38.7938 29.6763 37.6109 24.92 37.612C22.9423 37.6125 21.223 37.854 19.9853 38.098C19.3665 38.2201 18.8665 38.3427 18.5171 38.4367C18.1677 38.5307 17.8634 38.6303 17.9513 38.6021L17.9433 38.6041L17.9354 38.6061C17.6636 38.6983 17.3887 38.5618 17.2959 38.2833C17.203 38.0048 17.3411 37.73 17.6186 37.6379C17.6785 37.6179 20.8082 36.5929 24.92 36.592Z" fill="white"/>
</svg>
